# xmcd
#
# Track frame offsets:
# 150
# 21707
# 48722
# 80977
# 114637
# 140780
# 178297
#
# Disc length: 2743 seconds
#
#
# Revision: 0
# Processed by: cddbd v1.5.2PL0 Copyright (c) Steve Scherf et al.
# Submitted via: Nero 7, 11, 10, 0 
#
DISCID=730ab507
DTITLE=The Heartmurmurs - Same Old Blues [CD2]
DYEAR=2002
DGENRE=Blues
TTITLE0=Use Me
TTITLE1=Today Ain't Like Yesterday
TTITLE2=Me And My Woman
TTITLE3=Walking Blues
TTITLE4=In The Midnight Hour
TTITLE5=All About My Girl
TTITLE6=Reelin' And Rockin'
EXTD=
EXTT0=Use Me
EXTT1=Today Ain't Like Yesterday
EXTT2=Me And My Woman
EXTT3=Walking Blues
EXTT4=In The Midnight Hour
EXTT5=All About My Girl
EXTT6=Reelin' And Rockin'
PLAYORDER=
